<?xml version="1.0" encoding="utf-8"?>
<!-- Generator: Adobe Illustrator 16.0.0, SVG Export Plug-In . SVG Version: 6.00 Build 0)  -->
<!DOCTYPE svg PUBLIC "-//W3C//DTD SVG 1.1//EN" "http://www.w3.org/Graphics/SVG/1.1/DTD/svg11.dtd">
<svg version="1.1" id="Layer_1" xmlns="http://www.w3.org/2000/svg" xmlns:xlink="http://www.w3.org/1999/xlink" x="0px" y="0px"
	 width="774.647px" height="1000px" viewBox="0 0 774.647 1000" enable-background="new 0 0 774.647 1000" xml:space="preserve">
<g>
	<polyline fill="#FFFFFF" points="155.842,851.776 618.81,851.776 387.326,272.089 155.842,851.776 	"/>
	
		<radialGradient id="SVGID_1_" cx="392.4336" cy="847.5015" r="567.2616" gradientTransform="matrix(1 0 0 1.9253 0 -784.1677)" gradientUnits="userSpaceOnUse">
		<stop  offset="0" style="stop-color:#80D0FB"/>
		<stop  offset="0.4775" style="stop-color:#735FDF"/>
		<stop  offset="0.5892" style="stop-color:#5F4AB7"/>
		<stop  offset="0.7006" style="stop-color:#4F3A98"/>
		<stop  offset="0.808" style="stop-color:#432E81"/>
		<stop  offset="0.9098" style="stop-color:#3C2674"/>
		<stop  offset="1" style="stop-color:#3A246F"/>
	</radialGradient>
	<path fill="url(#SVGID_1_)" d="M603.744,44.367l21.277,30.082c4.168,5.892,5.796,13.208,4.521,20.31l-77.747,430.411
		L466.668,16.267L387.326,0l-79.347,16.267l-85.127,508.902L145.105,94.758c-1.274-7.102,0.352-14.417,4.52-20.31l21.278-30.082
		L0,79.174l155.842,772.602h145.796l82.926-511.376l2.763-0.719l2.764,0.719l82.919,511.376H618.81L774.647,79.174L603.744,44.367z"
		/>
	
		<radialGradient id="SVGID_2_" cx="387.3237" cy="870.3628" r="665.1956" gradientTransform="matrix(-4.371139e-008 1 -0.2251 -9.837816e-009 583.2102 483.0391)" gradientUnits="userSpaceOnUse">
		<stop  offset="0.2772" style="stop-color:#47FFFF"/>
		<stop  offset="0.4565" style="stop-color:#6AF4FA;stop-opacity:0.7518"/>
		<stop  offset="0.6954" style="stop-color:#92E8F3;stop-opacity:0.4214"/>
		<stop  offset="0.8849" style="stop-color:#ABE1EF;stop-opacity:0.1593"/>
		<stop  offset="1" style="stop-color:#B4DEEE;stop-opacity:0"/>
	</radialGradient>
	<path fill="url(#SVGID_2_)" d="M603.744,44.367l21.277,30.082c4.168,5.892,5.796,13.208,4.521,20.31l-77.747,430.411
		L466.668,16.267L387.326,0l-79.347,16.267l-85.127,508.902L145.105,94.758c-1.274-7.102,0.352-14.417,4.52-20.31l21.278-30.082
		L0,79.174l155.842,772.602h145.796l82.926-511.376l2.763-0.719l2.764,0.719l82.919,511.376H618.81L774.647,79.174L603.744,44.367z"
		/>
	
		<radialGradient id="SVGID_3_" cx="389.7666" cy="904.8306" r="419.7309" gradientTransform="matrix(-4.371139e-008 1 -1.2331 -5.390226e-008 1505.5493 515.064)" gradientUnits="userSpaceOnUse">
		<stop  offset="0" style="stop-color:#28F2FA"/>
		<stop  offset="0.4317" style="stop-color:#54D8FB;stop-opacity:0.5683"/>
		<stop  offset="0.7951" style="stop-color:#72C6FB;stop-opacity:0.2049"/>
		<stop  offset="1" style="stop-color:#7DBFFB;stop-opacity:0"/>
	</radialGradient>
	<path fill="url(#SVGID_3_)" d="M603.744,44.367l21.277,30.082c4.168,5.892,5.796,13.208,4.521,20.31l-77.747,430.411
		L466.668,16.267L387.326,0l-79.347,16.267l-85.127,508.902L145.105,94.758c-1.274-7.102,0.352-14.417,4.52-20.31l21.278-30.082
		L0,79.174l155.842,772.602h145.796l82.926-511.376l2.763-0.719l2.764,0.719l82.919,511.376H618.81L774.647,79.174L603.744,44.367z"
		/>
	<g>
		
			<radialGradient id="SVGID_4_" cx="-7004.6069" cy="-922.3882" r="196.038" gradientTransform="matrix(0.2636 0 0 1.7362 2232.8423 2102.1865)" gradientUnits="userSpaceOnUse">
			<stop  offset="0.3071" style="stop-color:#B4DEEE;stop-opacity:0.4"/>
			<stop  offset="1" style="stop-color:#B2DDF5;stop-opacity:0"/>
		</radialGradient>
		<ellipse fill="url(#SVGID_4_)" cx="386.786" cy="495.381" rx="52.197" ry="340.566"/>
	</g>
	<g>
		
			<radialGradient id="SVGID_5_" cx="-7002.0928" cy="-1043.3608" r="113.2788" gradientTransform="matrix(0.2636 0 0 2.8888 2232.8423 3535.1892)" gradientUnits="userSpaceOnUse">
			<stop  offset="0.3071" style="stop-color:#B4DEEE;stop-opacity:0.4"/>
			<stop  offset="1" style="stop-color:#B2DDF5;stop-opacity:0"/>
		</radialGradient>
		<path fill="url(#SVGID_5_)" d="M421.557,568.485c0,205.229-15.326,266.926-34.23,266.926c-18.905,0-34.231-61.697-34.231-266.926
			c0-205.227,15.326-371.596,34.231-371.596C406.23,196.889,421.557,363.258,421.557,568.485z"/>
	</g>
	<g>
		
			<radialGradient id="SVGID_6_" cx="32244.3203" cy="1518.6772" r="307.5422" gradientTransform="matrix(0.0599 -1.000000e-004 0.0015 0.8408 -1547.7966 -881.7006)" gradientUnits="userSpaceOnUse">
			<stop  offset="0.0011" style="stop-color:#89CDE9;stop-opacity:0.7"/>
			<stop  offset="0.1627" style="stop-color:#92D1EA;stop-opacity:0.5868"/>
			<stop  offset="0.683" style="stop-color:#ABDAED;stop-opacity:0.2221"/>
			<stop  offset="1" style="stop-color:#B4DEEE;stop-opacity:0"/>
		</radialGradient>
		<path opacity="0.35" fill="url(#SVGID_6_)" d="M404.627,387.828c0.274,142.909-7.834,258.774-18.104,258.793
			c-10.269,0.02-18.816-115.816-19.085-258.724c-0.27-142.908,7.834-258.775,18.107-258.793
			C395.814,129.083,404.357,244.918,404.627,387.828z"/>
	</g>
	<g>
		
			<radialGradient id="SVGID_7_" cx="32244.3203" cy="1518.6772" r="307.5422" gradientTransform="matrix(0.0599 -1.000000e-004 0.0015 0.8408 -1547.7966 -881.7006)" gradientUnits="userSpaceOnUse">
			<stop  offset="0.0011" style="stop-color:#89CDE9;stop-opacity:0.7"/>
			<stop  offset="0.1627" style="stop-color:#92D1EA;stop-opacity:0.5868"/>
			<stop  offset="0.683" style="stop-color:#ABDAED;stop-opacity:0.2221"/>
			<stop  offset="1" style="stop-color:#B4DEEE;stop-opacity:0"/>
		</radialGradient>
		<path opacity="0.35" fill="url(#SVGID_7_)" d="M404.627,387.828c0.274,142.909-7.834,258.774-18.104,258.793
			c-10.269,0.02-18.816-115.816-19.085-258.724c-0.27-142.908,7.834-258.775,18.107-258.793
			C395.814,129.083,404.357,244.918,404.627,387.828z"/>
	</g>
	<g>
		
			<radialGradient id="SVGID_8_" cx="32004.207" cy="1563.2661" r="228.8116" gradientTransform="matrix(-0.06 0 0 -1.6403 2306.3918 3019.26)" gradientUnits="userSpaceOnUse">
			<stop  offset="0.0011" style="stop-color:#89CDE9;stop-opacity:0.7"/>
			<stop  offset="0.1627" style="stop-color:#92D1EA;stop-opacity:0.5868"/>
			<stop  offset="0.683" style="stop-color:#ABDAED;stop-opacity:0.2221"/>
			<stop  offset="1" style="stop-color:#B4DEEE;stop-opacity:0"/>
		</radialGradient>
		<path opacity="0.35" fill="url(#SVGID_8_)" d="M370.387,403.394c-0.015-234.178,6.902-309.345,15.544-309.348
			c8.642,0,15.739,75.17,15.748,309.345c0.015,234.178-6.978,424.014-15.623,424.014C377.414,827.405,370.4,637.569,370.387,403.394
			z"/>
	</g>
	<path fill="none" d="M603.744,44.367l21.277,30.082c4.168,5.892,5.796,13.208,4.521,20.31l-77.747,430.411L466.668,16.267
		L387.326,0l-79.347,16.267l-85.127,508.902L145.105,94.758c-1.274-7.102,0.352-14.417,4.52-20.31l21.278-30.082L0,79.174
		l155.842,772.602h145.796l82.926-511.376l2.763-0.719l2.764,0.719l82.919,511.376H618.81L774.647,79.174L603.744,44.367z"/>
	<g>
		<defs>
			<path id="SVGID_9_" d="M603.744,44.367l21.277,30.082c4.168,5.892,5.796,13.208,4.521,20.31l-77.747,430.411L466.668,16.267
				L387.326,0l-79.347,16.267l-85.127,508.902L145.105,94.758c-1.274-7.102,0.352-14.417,4.52-20.31l21.278-30.082L0,79.174
				l155.842,772.602h145.796l82.926-511.376l2.763-0.719l2.764,0.719l82.919,511.376H618.81L774.647,79.174L603.744,44.367z"/>
		</defs>
		<clipPath id="SVGID_10_">
			<use xlink:href="#SVGID_9_"  overflow="visible"/>
		</clipPath>
		<g clip-path="url(#SVGID_10_)">
			<g>
				<g>
					
						<radialGradient id="SVGID_11_" cx="2258.5537" cy="2313.8296" r="196.3107" gradientTransform="matrix(0 0.5306 -0.9012 0 2473.7747 -320.7541)" gradientUnits="userSpaceOnUse">
						<stop  offset="0.0445" style="stop-color:#FFFFFF"/>
						<stop  offset="0.5021" style="stop-color:#95D2E7"/>
						<stop  offset="0.6164" style="stop-color:#91D1E6;stop-opacity:0.7703"/>
						<stop  offset="1" style="stop-color:#88CDE3;stop-opacity:0"/>
					</radialGradient>
					<path fill="url(#SVGID_11_)" d="M391.383,983.551c-97.77,0-177.023-47.094-177.023-105.195
						c0-58.096,79.254-105.195,177.023-105.195c97.769,0,177.022,47.1,177.022,105.195
						C568.405,936.458,489.151,983.551,391.383,983.551z"/>
					
						<radialGradient id="SVGID_12_" cx="1046.5039" cy="6163.8022" r="196.304" gradientTransform="matrix(-0.1431 1.1207 -0.2863 -0.0364 2273.0449 -309.1392)" gradientUnits="userSpaceOnUse">
						<stop  offset="0.1478" style="stop-color:#FFFFFF"/>
						<stop  offset="0.5828" style="stop-color:#95D2E7;stop-opacity:0.5"/>
						<stop  offset="0.6786" style="stop-color:#91D1E6;stop-opacity:0.3852"/>
						<stop  offset="1" style="stop-color:#88CDE3;stop-opacity:0"/>
					</radialGradient>
					<path fill="url(#SVGID_12_)" d="M330.719,862.85c-31.061-3.969-43.536-106.662-27.862-229.369
						c15.675-122.709,53.559-218.971,84.618-215.003c31.06,3.968,43.534,106.661,27.861,229.372
						C399.662,770.559,361.778,866.817,330.719,862.85z"/>
					
						<radialGradient id="SVGID_13_" cx="1489.5273" cy="5684.2329" r="196.2453" gradientTransform="matrix(-0.07 0.7731 -0.2876 -0.026 2173.3813 -265.0023)" gradientUnits="userSpaceOnUse">
						<stop  offset="0.1478" style="stop-color:#FFFFFF"/>
						<stop  offset="0.5828" style="stop-color:#95D2E7;stop-opacity:0.5"/>
						<stop  offset="0.6786" style="stop-color:#91D1E6;stop-opacity:0.3852"/>
						<stop  offset="1" style="stop-color:#88CDE3;stop-opacity:0"/>
					</radialGradient>
					<path fill="url(#SVGID_13_)" d="M421.371,893.389c-31.188-2.818-50.257-73.736-42.594-158.391s39.153-150.992,70.339-148.17
						c31.186,2.824,50.257,73.738,42.594,158.393C484.047,829.879,452.552,896.217,421.371,893.389z"/>
					
						<radialGradient id="SVGID_14_" cx="729.8105" cy="5391.1489" r="196.2783" gradientTransform="matrix(0.4866 1.4781 -0.4394 0.1445 2452.8367 -993.297)" gradientUnits="userSpaceOnUse">
						<stop  offset="0" style="stop-color:#FFFFFF"/>
						<stop  offset="1" style="stop-color:#88CDE3;stop-opacity:0"/>
					</radialGradient>
					<path fill="url(#SVGID_14_)" d="M537.823,1159.266c-47.656,15.689-129.478-102.789-182.758-264.633
						c-53.284-161.846-57.85-305.76-10.194-321.449c47.651-15.688,129.475,102.797,182.758,264.637
						C580.907,999.663,585.474,1143.579,537.823,1159.266z"/>
				</g>
			</g>
			<g>
				
					<radialGradient id="SVGID_15_" cx="2258.5537" cy="2313.8296" r="196.3107" gradientTransform="matrix(0 0.5306 -0.9012 0 2473.7747 -320.7541)" gradientUnits="userSpaceOnUse">
					<stop  offset="0.0445" style="stop-color:#FFFFFF"/>
					<stop  offset="0.5021" style="stop-color:#95D2E7"/>
					<stop  offset="0.6164" style="stop-color:#91D1E6;stop-opacity:0.7703"/>
					<stop  offset="1" style="stop-color:#88CDE3;stop-opacity:0"/>
				</radialGradient>
				<path fill="url(#SVGID_15_)" d="M391.383,983.551c-97.77,0-177.023-47.094-177.023-105.195
					c0-58.096,79.254-105.195,177.023-105.195c97.769,0,177.022,47.1,177.022,105.195
					C568.405,936.458,489.151,983.551,391.383,983.551z"/>
				
					<radialGradient id="SVGID_16_" cx="1046.5039" cy="6163.8022" r="196.304" gradientTransform="matrix(-0.1431 1.1207 -0.2863 -0.0364 2273.0449 -309.1392)" gradientUnits="userSpaceOnUse">
					<stop  offset="0.1478" style="stop-color:#FFFFFF"/>
					<stop  offset="0.5828" style="stop-color:#95D2E7;stop-opacity:0.5"/>
					<stop  offset="0.6786" style="stop-color:#91D1E6;stop-opacity:0.3852"/>
					<stop  offset="1" style="stop-color:#88CDE3;stop-opacity:0"/>
				</radialGradient>
				<path fill="url(#SVGID_16_)" d="M330.719,862.85c-31.061-3.969-43.536-106.662-27.862-229.369
					c15.675-122.709,53.559-218.971,84.618-215.003c31.06,3.968,43.534,106.661,27.861,229.372
					C399.662,770.559,361.778,866.817,330.719,862.85z"/>
				
					<radialGradient id="SVGID_17_" cx="1489.5273" cy="5684.2329" r="196.2453" gradientTransform="matrix(-0.07 0.7731 -0.2876 -0.026 2173.3813 -265.0023)" gradientUnits="userSpaceOnUse">
					<stop  offset="0.1478" style="stop-color:#FFFFFF"/>
					<stop  offset="0.5828" style="stop-color:#95D2E7;stop-opacity:0.5"/>
					<stop  offset="0.6786" style="stop-color:#91D1E6;stop-opacity:0.3852"/>
					<stop  offset="1" style="stop-color:#88CDE3;stop-opacity:0"/>
				</radialGradient>
				<path fill="url(#SVGID_17_)" d="M421.371,893.389c-31.188-2.818-50.257-73.736-42.594-158.387
					c7.663-84.658,39.153-150.996,70.339-148.174c31.186,2.824,50.257,73.738,42.594,158.393
					C484.047,829.879,452.552,896.217,421.371,893.389z"/>
				
					<radialGradient id="SVGID_18_" cx="729.8105" cy="5391.1489" r="196.2783" gradientTransform="matrix(0.4866 1.4781 -0.4394 0.1445 2452.8367 -993.297)" gradientUnits="userSpaceOnUse">
					<stop  offset="0" style="stop-color:#FFFFFF"/>
					<stop  offset="1" style="stop-color:#88CDE3;stop-opacity:0"/>
				</radialGradient>
				<path fill="url(#SVGID_18_)" d="M537.823,1159.266c-47.656,15.689-129.478-102.789-182.758-264.633
					c-53.284-161.846-57.85-305.76-10.194-321.449c47.651-15.688,129.475,102.797,182.758,264.637
					C580.907,999.663,585.474,1143.579,537.823,1159.266z"/>
			</g>
			
				<radialGradient id="SVGID_19_" cx="-7002.6934" cy="-889.4604" r="198.7358" gradientTransform="matrix(0.2636 0 0 1.5994 2232.8423 1949.2321)" gradientUnits="userSpaceOnUse">
				<stop  offset="0.3071" style="stop-color:#B4DEEE;stop-opacity:0.4"/>
				<stop  offset="1" style="stop-color:#B2DDF5;stop-opacity:0"/>
			</radialGradient>
			<path fill="url(#SVGID_19_)" d="M444.271,565.458c0,173.264-28.119,269.953-56.945,269.953
				c-28.83,0-56.951-96.689-56.951-269.953c0-173.26,28.121-357.477,56.951-357.477C416.152,207.98,444.271,392.198,444.271,565.458
				z"/>
			<g>
				
					<radialGradient id="SVGID_20_" cx="-30014.6797" cy="-5417.3296" r="195.7092" gradientTransform="matrix(-0.275 0.2887 0.8208 0.664 -3401.303 12837.6113)" gradientUnits="userSpaceOnUse">
					<stop  offset="0.0733" style="stop-color:#B2DDF5;stop-opacity:0.35"/>
					<stop  offset="0.517" style="stop-color:#A5D8EB;stop-opacity:0.1824"/>
					<stop  offset="1" style="stop-color:#9CD4E4;stop-opacity:0"/>
				</radialGradient>
				<path opacity="0.6" fill="url(#SVGID_20_)" d="M338.646,629.993c83.603,67.637,115.705,161.566,143.979,131.889
					s34.018-142.902-8.646-252.014c-40.795-104.324-174.297-98.41-202.571-68.732C243.134,470.816,255.043,562.352,338.646,629.993z
					"/>
				
					<radialGradient id="SVGID_21_" cx="-30535.0762" cy="-4023.4067" r="230.2724" gradientTransform="matrix(0.2463 0.3867 -0.8542 0.4621 4525.7056 14379.3086)" gradientUnits="userSpaceOnUse">
					<stop  offset="0.4275" style="stop-color:#FFFFFF;stop-opacity:0.3"/>
					<stop  offset="0.5574" style="stop-color:#E0F2FB;stop-opacity:0.2319"/>
					<stop  offset="0.752" style="stop-color:#B8E1F7;stop-opacity:0.13"/>
					<stop  offset="0.9063" style="stop-color:#9FD7F4;stop-opacity:0.0491"/>
					<stop  offset="1" style="stop-color:#96D3F3;stop-opacity:0"/>
				</radialGradient>
				<path opacity="0.6" fill="url(#SVGID_21_)" d="M515.816,845.293c-76.226,41.234-170.356,111.305-170.38,78.768
					c-0.019-17.455-177.045-249.143,42.33-358.445c43.029-21.441,195.288-17.389,232.8,49.188
					C654.72,675.409,592.048,804.063,515.816,845.293z"/>
				
					<radialGradient id="SVGID_22_" cx="-32890.2773" cy="-2850.4692" r="179.4051" gradientTransform="matrix(0.2038 -0.4244 0.7556 0.312 9279.6748 -12405.9004)" gradientUnits="userSpaceOnUse">
					<stop  offset="0.4275" style="stop-color:#FFFFFF;stop-opacity:0.25"/>
					<stop  offset="0.5377" style="stop-color:#E6F4F8;stop-opacity:0.2019"/>
					<stop  offset="0.7409" style="stop-color:#BEE3ED;stop-opacity:0.1131"/>
					<stop  offset="0.9021" style="stop-color:#A5D8E6;stop-opacity:0.0428"/>
					<stop  offset="1" style="stop-color:#9CD4E4;stop-opacity:0"/>
				</radialGradient>
				<path opacity="0.6" fill="url(#SVGID_22_)" d="M439.753,551.913c218.856,127.23,59.94,222.959,31.054,245.896
					c-15.497,12.303-30.632-44.568-121.967-47.846c-47.318-1.701-57.637-135.76-37.536-177.613
					C331.404,530.493,371.202,512.061,439.753,551.913z"/>
				
					<radialGradient id="SVGID_23_" cx="-24.0186" cy="-113.5806" r="50.8391" gradientTransform="matrix(-0.0616 2.11 -6.9125 0.4148 -364.6231 855.3508)" gradientUnits="userSpaceOnUse">
					<stop  offset="0.4275" style="stop-color:#FFFFFF;stop-opacity:0.3"/>
					<stop  offset="0.5574" style="stop-color:#E0F2FB;stop-opacity:0.2319"/>
					<stop  offset="0.752" style="stop-color:#B8E1F7;stop-opacity:0.13"/>
					<stop  offset="0.9063" style="stop-color:#9FD7F4;stop-opacity:0.0491"/>
					<stop  offset="1" style="stop-color:#96D3F3;stop-opacity:0"/>
				</radialGradient>
				<path fill="url(#SVGID_23_)" d="M171.868,761.594c1.664,96.137,246.573,155.551,357.485,192.906
					c110.916,37.354,131.73-77.559,138.921-176.986c12.521-173.014-96.123-184.051-191.403-221.09
					c-95.279-37.041-95.572,32.422-156.375,22.941C142.927,551.678,171.868,761.594,171.868,761.594z"/>
				
					<radialGradient id="SVGID_24_" cx="-29739.918" cy="-4137.2065" r="215.531" gradientTransform="matrix(0.2517 0.2008 -0.7506 0.8063 4794.3896 9879.5977)" gradientUnits="userSpaceOnUse">
					<stop  offset="0.0011" style="stop-color:#96D3F3;stop-opacity:0.3"/>
					<stop  offset="1" style="stop-color:#96D3F3;stop-opacity:0"/>
				</radialGradient>
				<path opacity="0.6" fill="url(#SVGID_24_)" d="M503.42,651.417c-76.438,82.131-125.875,136.908-151.753,116.27
					c-25.877-20.639-57.345-155.402-18.376-266.025c37.263-105.773,185.544-100.155,211.421-79.518
					C570.589,442.781,579.86,569.288,503.42,651.417z"/>
				
					<radialGradient id="SVGID_25_" cx="-30787.9121" cy="-4515.708" r="250.299" gradientTransform="matrix(0.2716 0.4255 -0.8479 0.4599 4922.8081 15741.9727)" gradientUnits="userSpaceOnUse">
					<stop  offset="0.4275" style="stop-color:#FFFFFF;stop-opacity:0.3"/>
					<stop  offset="0.5574" style="stop-color:#E0F2FB;stop-opacity:0.2319"/>
					<stop  offset="0.752" style="stop-color:#B8E1F7;stop-opacity:0.13"/>
					<stop  offset="0.9063" style="stop-color:#9FD7F4;stop-opacity:0.0491"/>
					<stop  offset="1" style="stop-color:#96D3F3;stop-opacity:0"/>
				</radialGradient>
				<path opacity="0.6" fill="url(#SVGID_25_)" d="M474.391,706.141c-86.365,46.84-161.784,108.689-192.84,89.832
					C206.961,750.682,96.614,523.01,345.02,398.6c48.728-24.405,209.283-23.003,250.537,50.321
					C633.116,515.669,560.751,659.301,474.391,706.141z"/>
				<g>
					
						<radialGradient id="SVGID_26_" cx="-30539.3027" cy="-4246.1387" r="215.5336" gradientTransform="matrix(0.2058 0.1618 -0.7432 0.8126 3546.5369 8914.3574)" gradientUnits="userSpaceOnUse">
						<stop  offset="0.0011" style="stop-color:#96D3F3;stop-opacity:0.3"/>
						<stop  offset="1" style="stop-color:#96D3F3;stop-opacity:0"/>
					</radialGradient>
					<path opacity="0.6" fill="url(#SVGID_26_)" d="M489.063,587.913c-75.698,82.756-124.813,137.811-145.967,121.178
						c-21.153-16.635-36.752-137.938,8.191-243.497c42.969-100.931,174.585-109.444,195.738-92.813
						C568.178,389.414,564.767,505.156,489.063,587.913z"/>
					
						<radialGradient id="SVGID_27_" cx="-27421.8555" cy="-5314.2573" r="195.6921" gradientTransform="matrix(-0.2509 0.0921 0.4411 1.0325 -4168.0488 8527.2695)" gradientUnits="userSpaceOnUse">
						<stop  offset="0.0011" style="stop-color:#96D3F3;stop-opacity:0.3"/>
						<stop  offset="0.3081" style="stop-color:#98D3ED;stop-opacity:0.2078"/>
						<stop  offset="1" style="stop-color:#9CD4E4;stop-opacity:0"/>
					</radialGradient>
					<path opacity="0.6" fill="url(#SVGID_27_)" d="M309.569,523.682c44.921,105.162,48.472,203.773,74.261,194.307
						c25.785-9.465,52.64-103.248,44.755-220.825c-7.543-112.425-102.248-182.736-128.037-173.268
						C274.759,333.364,264.644,418.522,309.569,523.682z"/>
					
						<radialGradient id="SVGID_28_" cx="-28319.2656" cy="-5464.0991" r="195.6928" gradientTransform="matrix(-0.1791 0.1838 0.8056 0.6808 -284.8208 9471.4922)" gradientUnits="userSpaceOnUse">
						<stop  offset="0.0733" style="stop-color:#B2DDF5;stop-opacity:0.35"/>
						<stop  offset="0.517" style="stop-color:#A5D8EB;stop-opacity:0.1824"/>
						<stop  offset="1" style="stop-color:#9CD4E4;stop-opacity:0"/>
					</radialGradient>
					<path opacity="0.6" fill="url(#SVGID_28_)" d="M338.599,578.922c82.049,69.34,125.621,150.713,144.039,131.826
						c18.414-18.891,3.115-109.09-52.003-204.568c-52.701-91.293-163.487-110.239-181.901-91.349
						C230.32,433.723,256.55,509.583,338.599,578.922z"/>
					
						<radialGradient id="SVGID_29_" cx="-30640.1641" cy="-4539.2651" r="230.2518" gradientTransform="matrix(0.2372 0.3664 -0.996 0.5482 3173.8032 14416.8203)" gradientUnits="userSpaceOnUse">
						<stop  offset="0.4275" style="stop-color:#FFFFFF;stop-opacity:0.3"/>
						<stop  offset="0.5574" style="stop-color:#E0F2FB;stop-opacity:0.2319"/>
						<stop  offset="0.752" style="stop-color:#B8E1F7;stop-opacity:0.13"/>
						<stop  offset="0.9063" style="stop-color:#9FD7F4;stop-opacity:0.0491"/>
						<stop  offset="1" style="stop-color:#96D3F3;stop-opacity:0"/>
					</radialGradient>
					<path opacity="0.6" fill="url(#SVGID_29_)" d="M496.801,828.901c-88.883,48.914-200.471,128.631-197.374,95.818
						c1.664-17.602-173.282-234.266,81.604-365.586c49.997-25.76,219.219-36.307,254.607,27.234
						C667.856,644.211,585.683,779.989,496.801,828.901z"/>
					
						<radialGradient id="SVGID_30_" cx="-32928.207" cy="-2979.2505" r="179.404" gradientTransform="matrix(0.2038 -0.4244 0.7556 0.312 9338.0049 -12381.8125)" gradientUnits="userSpaceOnUse">
						<stop  offset="0.4275" style="stop-color:#FFFFFF;stop-opacity:0.25"/>
						<stop  offset="0.5377" style="stop-color:#E6F4F8;stop-opacity:0.2019"/>
						<stop  offset="0.7409" style="stop-color:#BEE3ED;stop-opacity:0.1131"/>
						<stop  offset="0.9021" style="stop-color:#A5D8E6;stop-opacity:0.0428"/>
						<stop  offset="1" style="stop-color:#9CD4E4;stop-opacity:0"/>
					</radialGradient>
					<path opacity="0.6" fill="url(#SVGID_30_)" d="M393.041,551.913c218.853,127.23,59.941,222.959,31.052,245.896
						c-15.493,12.303-30.628-44.568-121.964-47.846c-47.322-1.701-57.637-135.76-37.536-177.613
						C284.693,530.493,324.492,512.061,393.041,551.913z"/>
					
						<radialGradient id="SVGID_31_" cx="182.6514" cy="-619.8223" r="41.7093" gradientTransform="matrix(-0.7981 1.6754 -5.8793 -3.1974 -3203.8721 -1647.5266)" gradientUnits="userSpaceOnUse">
						<stop  offset="0.4275" style="stop-color:#FFFFFF;stop-opacity:0.1"/>
						<stop  offset="0.5574" style="stop-color:#E0F2FB;stop-opacity:0.0773"/>
						<stop  offset="0.7519" style="stop-color:#B8E1F7;stop-opacity:0.0433"/>
						<stop  offset="0.9063" style="stop-color:#9FD7F4;stop-opacity:0.0164"/>
						<stop  offset="1" style="stop-color:#96D3F3;stop-opacity:0"/>
					</radialGradient>
					<path fill="url(#SVGID_31_)" d="M82.953,606.893c12.095,115.135,190.045,144.775,249.92,210.852
						c59.877,66.068,103.927,3.484,135.223-54.871c54.456-101.537-11.075-150.543-61.178-210.342
						c-50.105-59.804-185.299-102.934-213.744-99.181C122.584,462.669,82.953,606.893,82.953,606.893z"/>
					
						<radialGradient id="SVGID_32_" cx="-8.4609" cy="-134.0698" r="50.4538" gradientTransform="matrix(-0.0616 2.11 -6.9125 0.4148 -546.9049 878.2013)" gradientUnits="userSpaceOnUse">
						<stop  offset="0.4275" style="stop-color:#FFFFFF;stop-opacity:0.3"/>
						<stop  offset="0.5574" style="stop-color:#E0F2FB;stop-opacity:0.2319"/>
						<stop  offset="0.752" style="stop-color:#B8E1F7;stop-opacity:0.13"/>
						<stop  offset="0.9063" style="stop-color:#9FD7F4;stop-opacity:0.0491"/>
						<stop  offset="1" style="stop-color:#96D3F3;stop-opacity:0"/>
					</radialGradient>
					<path fill="url(#SVGID_32_)" d="M134.833,808.252c1.664,96.139,236.894,157.201,347.811,194.557
						c110.915,37.359,131.726-77.563,138.92-176.99c12.517-173.008-96.122-184.041-191.402-221.086
						c-95.28-37.041-94.854,24.355-156.375,22.943C116.066,624.042,134.833,808.252,134.833,808.252z"/>
					<g>
						
							<radialGradient id="SVGID_33_" cx="-30539.3027" cy="-4246.1387" r="215.5336" gradientTransform="matrix(0.2058 0.1618 -0.7432 0.8126 3546.5369 8914.3574)" gradientUnits="userSpaceOnUse">
							<stop  offset="0.0011" style="stop-color:#96D3F3;stop-opacity:0.3"/>
							<stop  offset="1" style="stop-color:#96D3F3;stop-opacity:0"/>
						</radialGradient>
						<path opacity="0.6" fill="url(#SVGID_33_)" d="M489.063,587.913c-75.698,82.756-124.813,137.811-145.967,121.178
							c-21.153-16.635-36.752-137.938,8.191-243.497c42.969-100.931,174.585-109.444,195.738-92.813
							C568.178,389.414,564.767,505.156,489.063,587.913z"/>
						
							<radialGradient id="SVGID_34_" cx="-28707.7266" cy="-5334.6543" r="195.6871" gradientTransform="matrix(-0.3267 0.1221 0.4496 1.0292 -6633.1606 9518.8828)" gradientUnits="userSpaceOnUse">
							<stop  offset="0.0011" style="stop-color:#96D3F3;stop-opacity:0.3"/>
							<stop  offset="0.3081" style="stop-color:#98D3ED;stop-opacity:0.2078"/>
							<stop  offset="1" style="stop-color:#9CD4E4;stop-opacity:0"/>
						</radialGradient>
						<path opacity="0.6" fill="url(#SVGID_34_)" d="M272.516,538.358c45.783,104.818,39.961,207.145,73.547,194.586
							c33.587-12.553,77.331-113.02,79.653-234.645C427.936,382.008,315.582,318.686,282,331.241
							C248.414,343.8,226.724,433.54,272.516,538.358z"/>
						
							<radialGradient id="SVGID_35_" cx="-28319.2656" cy="-5464.0991" r="195.6928" gradientTransform="matrix(-0.1791 0.1838 0.8056 0.6808 -284.8208 9471.4922)" gradientUnits="userSpaceOnUse">
							<stop  offset="0.0733" style="stop-color:#B2DDF5;stop-opacity:0.35"/>
							<stop  offset="0.517" style="stop-color:#A5D8EB;stop-opacity:0.1824"/>
							<stop  offset="1" style="stop-color:#9CD4E4;stop-opacity:0"/>
						</radialGradient>
						<path opacity="0.6" fill="url(#SVGID_35_)" d="M338.599,578.922c82.049,69.34,125.621,150.713,144.039,131.826
							c18.414-18.891,3.115-109.09-52.003-204.568c-52.701-91.293-163.487-110.239-181.901-91.349
							C230.32,433.723,256.55,509.583,338.599,578.922z"/>
						
							<radialGradient id="SVGID_36_" cx="-30470.1328" cy="-4563.2603" r="230.2785" gradientTransform="matrix(0.3009 0.4739 -1.0013 0.5392 5028.5205 17579.8828)" gradientUnits="userSpaceOnUse">
							<stop  offset="0.4275" style="stop-color:#FFFFFF;stop-opacity:0.3"/>
							<stop  offset="0.5574" style="stop-color:#E0F2FB;stop-opacity:0.2319"/>
							<stop  offset="0.752" style="stop-color:#B8E1F7;stop-opacity:0.13"/>
							<stop  offset="0.9063" style="stop-color:#9FD7F4;stop-opacity:0.0491"/>
							<stop  offset="1" style="stop-color:#96D3F3;stop-opacity:0"/>
						</radialGradient>
						<path opacity="0.6" fill="url(#SVGID_36_)" d="M519.864,842.272C430.513,890.395,320.64,973.01,319.843,933.62
							c-0.427-21.131-215.606-305.75,41.74-432.912c50.479-24.943,230.965-16.466,276.976,65.005
							C680.438,639.881,609.21,794.147,519.864,842.272z"/>
						
							<radialGradient id="SVGID_37_" cx="-32928.207" cy="-2979.2505" r="179.404" gradientTransform="matrix(0.2038 -0.4244 0.7556 0.312 9338.0049 -12381.8125)" gradientUnits="userSpaceOnUse">
							<stop  offset="0.4275" style="stop-color:#FFFFFF;stop-opacity:0.25"/>
							<stop  offset="0.5377" style="stop-color:#E6F4F8;stop-opacity:0.2019"/>
							<stop  offset="0.7409" style="stop-color:#BEE3ED;stop-opacity:0.1131"/>
							<stop  offset="0.9021" style="stop-color:#A5D8E6;stop-opacity:0.0428"/>
							<stop  offset="1" style="stop-color:#9CD4E4;stop-opacity:0"/>
						</radialGradient>
						<path opacity="0.6" fill="url(#SVGID_37_)" d="M393.041,551.913c218.853,127.23,59.941,222.959,31.052,245.896
							c-15.493,12.303-30.628-44.568-121.964-47.846c-47.322-1.701-57.637-135.76-37.536-177.613
							C284.693,530.493,324.492,512.061,393.041,551.913z"/>
					</g>
					
						<radialGradient id="SVGID_38_" cx="-30618.3613" cy="-4457.7021" r="215.5332" gradientTransform="matrix(0.2058 0.1618 -0.7432 0.8126 3452.2937 9017.4023)" gradientUnits="userSpaceOnUse">
						<stop  offset="0.0011" style="stop-color:#96D3F3;stop-opacity:0.3"/>
						<stop  offset="1" style="stop-color:#96D3F3;stop-opacity:0"/>
					</radialGradient>
					<path opacity="0.6" fill="url(#SVGID_38_)" d="M535.774,506.256c-75.698,82.756-124.811,137.811-145.969,121.178
						c-21.152-16.633-36.748-137.936,8.192-243.495c42.973-100.931,174.584-109.446,195.742-92.813
						C614.893,307.756,611.476,423.501,535.774,506.256z"/>
					
						<radialGradient id="SVGID_39_" cx="-27535.6172" cy="-5345.0757" r="195.6921" gradientTransform="matrix(-0.2509 0.0921 0.4411 1.0325 -4159.9004 8546.3418)" gradientUnits="userSpaceOnUse">
						<stop  offset="0.0011" style="stop-color:#FFFFFF;stop-opacity:0.3"/>
						<stop  offset="0.1934" style="stop-color:#E6F4F8;stop-opacity:0.2423"/>
						<stop  offset="0.5479" style="stop-color:#BEE3ED;stop-opacity:0.1358"/>
						<stop  offset="0.8292" style="stop-color:#A5D8E6;stop-opacity:0.0513"/>
						<stop  offset="1" style="stop-color:#9CD4E4;stop-opacity:0"/>
					</radialGradient>
					<path opacity="0.6" fill="url(#SVGID_39_)" d="M332.665,500.457c44.926,105.161,48.472,203.774,74.262,194.307
						c25.788-9.467,52.639-103.248,44.753-220.826c-7.537-112.422-102.247-182.736-128.031-173.267
						C297.859,310.14,287.744,395.296,332.665,500.457z"/>
					
						<radialGradient id="SVGID_40_" cx="-32932.9805" cy="-2739.9341" r="179.4038" gradientTransform="matrix(0.2047 -0.424 0.8091 0.3358 9325.3066 -12384.3027)" gradientUnits="userSpaceOnUse">
						<stop  offset="0.4275" style="stop-color:#FFFFFF;stop-opacity:0.25"/>
						<stop  offset="0.5377" style="stop-color:#E6F4F8;stop-opacity:0.2019"/>
						<stop  offset="0.7409" style="stop-color:#BEE3ED;stop-opacity:0.1131"/>
						<stop  offset="0.9021" style="stop-color:#A5D8E6;stop-opacity:0.0428"/>
						<stop  offset="1" style="stop-color:#9CD4E4;stop-opacity:0"/>
					</radialGradient>
					<path opacity="0.6" fill="url(#SVGID_40_)" d="M382.259,547.112c235.291,134.547,69.436,227.186,39.437,249.631
						c-16.095,12.035-33.642-45.912-130.516-51.65c-50.188-2.977-64.679-138.9-44.49-180.715
						C266.879,522.559,308.56,504.967,382.259,547.112z"/>
				</g>
				
					<radialGradient id="SVGID_41_" cx="-127.833" cy="-166.1318" r="54.2275" gradientTransform="matrix(0.0666 2.171 -9.0547 -0.0562 -1126.0212 1037.5732)" gradientUnits="userSpaceOnUse">
					<stop  offset="0.4275" style="stop-color:#FFFFFF;stop-opacity:0.24"/>
					<stop  offset="0.5574" style="stop-color:#E0F2FB;stop-opacity:0.1855"/>
					<stop  offset="0.7519" style="stop-color:#B8E1F7;stop-opacity:0.104"/>
					<stop  offset="0.9063" style="stop-color:#9FD7F4;stop-opacity:0.0393"/>
					<stop  offset="1" style="stop-color:#96D3F3;stop-opacity:0"/>
				</radialGradient>
				<path fill="url(#SVGID_41_)" d="M40.55,827.655c9.685,107.791,272.808,137.617,433.971,187.879
					c161.492-8.9,233.214-23.703,235.925-134.502c4.725-192.795-167.95-289.506-306.773-338.227
					c-138.823-48.719-131.217,47.713-212.862,79.781C34.898,683.815,40.55,827.655,40.55,827.655z"/>
			</g>
		</g>
	</g>
	<path fill="#FFFFFF" d="M398.034,851.776h74.975v-0.006h0.006l-59.95-369.684L390.09,340.399l0,0l0,0l-2.764-0.721l-2.244,0.584
		l-0.523,0.137l0,0v0.002l-59.774,368.632l-23.146,142.742l0,0H398.034z M473.009,851.77L473.009,851.77l-4.886-30.143
		L473.009,851.77z"/>
	<g>
		<linearGradient id="SVGID_42_" gradientUnits="userSpaceOnUse" x1="179.0405" y1="924.7065" x2="179.0405" y2="49.6536">
			<stop  offset="0" style="stop-color:#A4E8FB"/>
			<stop  offset="0.2222" style="stop-color:#83D8FB"/>
			<stop  offset="0.3761" style="stop-color:#7EB5F3"/>
			<stop  offset="0.7084" style="stop-color:#735FDF"/>
			<stop  offset="1" style="stop-color:#735FDF"/>
		</linearGradient>
		<path fill="url(#SVGID_42_)" d="M222.903,524.86L145.105,94.758c-1.274-7.102,0.352-14.417,4.52-20.31l21.278-30.082
			l-12.748,2.596l-18.033,25.493c-4.163,5.892-5.795,13.208-4.521,20.309l82.888,458.48L222.903,524.86z"/>
		<linearGradient id="SVGID_43_" gradientUnits="userSpaceOnUse" x1="595.6074" y1="924.7065" x2="595.6074" y2="49.6536">
			<stop  offset="0" style="stop-color:#A4E8FB"/>
			<stop  offset="0.2222" style="stop-color:#83D8FB"/>
			<stop  offset="0.3761" style="stop-color:#7EB5F3"/>
			<stop  offset="0.7084" style="stop-color:#735FDF"/>
			<stop  offset="1" style="stop-color:#735FDF"/>
		</linearGradient>
		<path fill="url(#SVGID_43_)" d="M551.744,524.86l77.798-430.102c1.275-7.102-0.353-14.417-4.521-20.31l-21.277-30.082
			l12.747,2.596l18.034,25.493c4.168,5.892,5.795,13.208,4.521,20.309l-82.889,458.48L551.744,524.86z"/>
	</g>
	<g>
		<linearGradient id="SVGID_44_" gradientUnits="userSpaceOnUse" x1="387.3257" y1="849.645" x2="387.3257" y2="1242.0634">
			<stop  offset="0.0318" style="stop-color:#FFFFFF;stop-opacity:0.6"/>
			<stop  offset="0.0949" style="stop-color:#FFFFFF;stop-opacity:0.5244"/>
			<stop  offset="0.5325" style="stop-color:#FFFFFF;stop-opacity:0"/>
		</linearGradient>
		<polygon opacity="0.8" fill="url(#SVGID_44_)" points="473.009,851.776 405.155,799.844 369.491,799.844 301.638,851.776 
			31.417,1000 743.234,1000 		"/>
		<linearGradient id="SVGID_45_" gradientUnits="userSpaceOnUse" x1="386.1782" y1="839.0874" x2="386.1782" y2="1095.719">
			<stop  offset="0.0178" style="stop-color:#FFFFFF"/>
			<stop  offset="0.018" style="stop-color:#FFFFFF;stop-opacity:0.9986"/>
			<stop  offset="0.0934" style="stop-color:#FFFFFF;stop-opacity:0.25"/>
			<stop  offset="0.4896" style="stop-color:#FFFFFF;stop-opacity:0"/>
		</linearGradient>
		<polygon fill="url(#SVGID_45_)" points="606.864,1000 473.009,851.776 301.638,851.776 165.493,1000 		"/>
	</g>
</g>
</svg>
